<svg width="21" height="21" viewBox="0 0 21 21" fill="none" xmlns="http://www.w3.org/2000/svg">
<path d="M6.67132 10.0512C6.67132 8.20873 8.16414 6.71468 10.0061 6.71468C11.8481 6.71468 13.3417 8.20873 13.3417 10.0512C13.3417 11.8938 11.8481 13.3878 10.0061 13.3878C8.16414 13.3878 6.67132 11.8938 6.67132 10.0512ZM4.86816 10.0512C4.86816 12.8898 7.16842 15.1907 10.0061 15.1907C12.8438 15.1907 15.1441 12.8898 15.1441 10.0512C15.1441 7.21273 12.8438 4.9118 10.0061 4.9118C7.16842 4.9118 4.86816 7.21273 4.86816 10.0512ZM14.1468 4.70802C14.1467 4.94557 14.217 5.17781 14.3489 5.37538C14.4807 5.57295 14.6682 5.72697 14.8875 5.81796C15.1069 5.90895 15.3483 5.93283 15.5813 5.88658C15.8142 5.84033 16.0282 5.72603 16.1962 5.55812C16.3642 5.39022 16.4786 5.17626 16.525 4.94329C16.5715 4.71032 16.5478 4.46882 16.457 4.24932C16.3662 4.02982 16.2124 3.84217 16.015 3.71012C15.8176 3.57806 15.5854 3.50753 15.348 3.50744H15.3475C15.0292 3.50758 14.7239 3.63411 14.4988 3.85921C14.2736 4.08432 14.147 4.38961 14.1468 4.70802ZM5.9637 18.1982C4.98815 18.1538 4.45791 17.9913 4.10554 17.8539C3.63838 17.672 3.30506 17.4553 2.95461 17.1053C2.60416 16.7552 2.38723 16.4221 2.20616 15.9548C2.0688 15.6025 1.9063 15.0719 1.86196 14.0961C1.81345 13.0411 1.80376 12.7242 1.80376 10.0513C1.80376 7.37847 1.81425 7.06243 1.86196 6.00654C1.90638 5.03071 2.07008 4.5012 2.20616 4.14784C2.38803 3.68055 2.60464 3.34713 2.95461 2.99658C3.30458 2.64603 3.63758 2.42904 4.10554 2.24792C4.45775 2.11052 4.98815 1.94797 5.9637 1.90361C7.01841 1.85509 7.33524 1.8454 10.0061 1.8454C12.677 1.8454 12.9942 1.85589 14.0497 1.90361C15.0253 1.94805 15.5546 2.1118 15.9079 2.24792C16.3751 2.42904 16.7084 2.64651 17.0588 2.99658C17.4093 3.34665 17.6254 3.68055 17.8073 4.14784C17.9446 4.50016 18.1071 5.03071 18.1515 6.00654C18.2 7.06243 18.2097 7.37847 18.2097 10.0513C18.2097 12.7242 18.2 13.0402 18.1515 14.0961C18.1071 15.0719 17.9438 15.6023 17.8073 15.9548C17.6254 16.4221 17.4088 16.7555 17.0588 17.1053C16.7089 17.455 16.3751 17.672 15.9079 17.8539C15.5557 17.9913 15.0253 18.1539 14.0497 18.1982C12.995 18.2468 12.6782 18.2565 10.0061 18.2565C7.33404 18.2565 7.01809 18.2468 5.9637 18.1982ZM5.88085 0.102972C4.81565 0.151495 4.08777 0.320445 3.45211 0.567865C2.7938 0.823372 2.2365 1.16616 1.67961 1.72233C1.12272 2.2785 0.78091 2.83684 0.525477 3.49534C0.278129 4.13159 0.109227 4.85928 0.0607184 5.92478C0.0114088 6.99197 0.00012207 7.33315 0.00012207 10.0512C0.00012207 12.7693 0.0114088 13.1105 0.0607184 14.1777C0.109227 15.2433 0.278129 15.9709 0.525477 16.6071C0.78091 17.2653 1.1228 17.8242 1.67961 18.3802C2.23642 18.9361 2.7938 19.2784 3.45211 19.5346C4.08897 19.782 4.81565 19.951 5.88085 19.9995C6.94829 20.048 7.28881 20.0601 10.0061 20.0601C12.7234 20.0601 13.0645 20.0488 14.1314 19.9995C15.1967 19.951 15.9241 19.782 16.5601 19.5346C17.218 19.2784 17.7757 18.9363 18.3326 18.3802C18.8895 17.824 19.2306 17.2653 19.4868 16.6071C19.7341 15.9709 19.9038 15.2432 19.9515 14.1777C20 13.1097 20.0113 12.7693 20.0113 10.0512C20.0113 7.33315 20 6.99197 19.9515 5.92478C19.903 4.8592 19.7341 4.13119 19.4868 3.49534C19.2306 2.83724 18.8886 2.27939 18.3326 1.72233C17.7766 1.16528 17.218 0.823372 16.5609 0.567865C15.9241 0.320445 15.1966 0.150695 14.1322 0.102972C13.0653 0.0544491 12.7242 0.0423584 10.0069 0.0423584C7.28961 0.0423584 6.94829 0.0536484 5.88085 0.102972Z" fill="#333333"/>
</svg>
