<svg width="78" height="78" viewBox="0 0 78 78" fill="none" xmlns="http://www.w3.org/2000/svg">
<path d="M0.25 39C0.25 60.4062 17.5938 77.75 39 77.75C60.4062 77.75 77.75 60.4062 77.75 39C77.75 17.5938 60.4062 0.25 39 0.25C17.5938 0.25 0.25 17.5938 0.25 39ZM31.5 31.5C31.5 34.2656 29.2656 36.5 26.5 36.5C23.7344 36.5 21.5 34.2656 21.5 31.5C21.5 28.7344 23.7344 26.5 26.5 26.5C29.2656 26.5 31.5 28.7344 31.5 31.5ZM56.2656 34.0781C53.9531 32.0156 49.0469 32.0156 46.7344 34.0781L45.25 35.4062C43.9531 36.5625 41.875 35.4688 42.1562 33.7188C42.7812 29.7812 47.5 27.1406 51.5156 27.1406C55.5312 27.1406 60.25 29.7812 60.875 33.7188C61.1406 35.4531 59.0938 36.5781 57.7812 35.4062L56.2656 34.0781ZM24.9062 49.9062C28.4062 54.1094 33.5312 56.5 39 56.5C44.4688 56.5 49.5938 54.0937 53.0938 49.9062C55.2188 47.375 59.0469 50.5625 56.9375 53.1094C52.4844 58.4375 45.9531 61.5 39 61.5C32.0469 61.5 25.5156 58.4375 21.0625 53.0938C18.9531 50.5469 22.8125 47.3594 24.9062 49.9062Z" fill="white"/>
</svg>
